<svg xmlns="http://www.w3.org/2000/svg" xmlns:xlink="http://www.w3.org/1999/xlink" width="500" zoomAndPan="magnify" viewBox="0 0 375 374.999991" height="500" preserveAspectRatio="xMidYMid meet" version="1.0"><defs><g/><clipPath id="0bf8413ec0"><path d="M 37.527344 179.5 L 337.742188 179.5 L 337.742188 361.714844 L 37.527344 361.714844 Z M 37.527344 179.5 " clip-rule="nonzero"/></clipPath><clipPath id="db5389a2ec"><path d="M 45 179.5 L 130 179.5 L 130 336 L 45 336 Z M 45 179.5 " clip-rule="nonzero"/></clipPath><clipPath id="b6ad1ecb8e"><path d="M 257 179.5 L 331 179.5 L 331 329 L 257 329 Z M 257 179.5 " clip-rule="nonzero"/></clipPath><clipPath id="bc7d605963"><path d="M 47 179.5 L 328 179.5 L 328 347 L 47 347 Z M 47 179.5 " clip-rule="nonzero"/></clipPath><clipPath id="f7dd55c7b0"><path d="M 102 179.5 L 180 179.5 L 180 197 L 102 197 Z M 102 179.5 " clip-rule="nonzero"/></clipPath><clipPath id="0cff9e7d75"><path d="M 199 179.5 L 246 179.5 L 246 258 L 199 258 Z M 199 179.5 " clip-rule="nonzero"/></clipPath><clipPath id="9c3054c2d0"><path d="M 129 179.5 L 167 179.5 L 167 251 L 129 251 Z M 129 179.5 " clip-rule="nonzero"/></clipPath><clipPath id="d06d600ca6"><path d="M 47 179.5 L 148 179.5 L 148 347 L 47 347 Z M 47 179.5 " clip-rule="nonzero"/></clipPath><clipPath id="1b0ca3bba8"><path d="M 215 179.5 L 300 179.5 L 300 301 L 215 301 Z M 215 179.5 " clip-rule="nonzero"/></clipPath><clipPath id="686fadeb19"><path d="M 260 179.5 L 287 179.5 L 287 210 L 260 210 Z M 260 179.5 " clip-rule="nonzero"/></clipPath><clipPath id="600eb78c6e"><path d="M 144 179.5 L 328 179.5 L 328 347 L 144 347 Z M 144 179.5 " clip-rule="nonzero"/></clipPath></defs><g clip-path="url(#0bf8413ec0)"><path fill="#ef9230" d="M 187.632812 61.652344 C 104.722656 61.652344 37.527344 128.847656 37.527344 211.757812 C 37.527344 294.667969 104.722656 361.867188 187.632812 361.867188 C 270.542969 361.867188 337.742188 294.667969 337.742188 211.757812 C 337.742188 128.847656 270.542969 61.652344 187.632812 61.652344 Z M 187.632812 250.589844 C 166.1875 250.589844 148.804688 233.207031 148.804688 211.757812 C 148.804688 190.3125 166.1875 172.929688 187.632812 172.929688 C 209.082031 172.929688 226.464844 190.3125 226.464844 211.757812 C 226.464844 233.207031 209.082031 250.589844 187.632812 250.589844 Z M 187.632812 250.589844 " fill-opacity="1" fill-rule="nonzero"/></g><g clip-path="url(#db5389a2ec)"><path fill="#d36c27" d="M 80.257812 126.511719 C 80.257812 126.511719 61.382812 133.523438 49.515625 189.070312 C 49.515625 189.070312 50.054688 206.332031 46.820312 223.050781 C 43.585938 239.765625 45.742188 267.273438 54.371094 279.675781 C 63 292.082031 74.324219 298.550781 87.269531 307.179688 C 100.210938 315.8125 108.300781 318.507812 113.695312 325.519531 C 119.085938 332.53125 129.875 340.078125 129.875 333.070312 C 129.875 326.058594 115.851562 308.800781 106.144531 300.710938 C 96.4375 292.621094 74.863281 271.046875 76.480469 254.328125 C 78.101562 237.609375 77.5625 191.230469 78.101562 183.140625 C 78.640625 175.050781 85.109375 129.207031 80.257812 126.511719 Z M 80.257812 126.511719 " fill-opacity="1" fill-rule="nonzero"/></g><g clip-path="url(#b6ad1ecb8e)"><path fill="#d36c27" d="M 257.890625 328.464844 C 257.890625 328.464844 278.023438 327.910156 307.128906 279.121094 C 307.128906 279.121094 312.179688 262.597656 320.609375 247.820312 C 329.058594 233.027344 333.609375 195.488281 329.417969 180.964844 C 325.25 166.4375 322.175781 167.410156 312.699219 155.078125 C 303.226562 142.746094 293.125 137.640625 290.285156 129.261719 C 287.425781 120.886719 279.660156 110.261719 277.394531 116.910156 C 275.128906 123.546875 282.859375 144.398438 289.4375 155.183594 C 296.019531 165.972656 309.5 193.351562 302.597656 208.648438 C 295.675781 223.964844 281.257812 268.046875 278.148438 275.542969 C 275.058594 283.039062 254.167969 324.351562 257.890625 328.464844 Z M 257.890625 328.464844 " fill-opacity="1" fill-rule="nonzero"/></g><g clip-path="url(#bc7d605963)"><path fill="#f16b97" d="M 314.191406 170.644531 C 309.71875 156.855469 309.429688 140.820312 301.085938 129.335938 C 292.65625 117.738281 277.429688 112.5625 265.835938 104.128906 C 254.367188 95.789062 244.765625 82.84375 230.976562 78.371094 C 217.675781 74.054688 202.375 78.730469 187.632812 78.730469 C 172.894531 78.730469 157.59375 74.054688 144.292969 78.371094 C 130.503906 82.84375 120.902344 95.769531 109.433594 104.128906 C 97.839844 112.5625 82.613281 117.757812 74.179688 129.335938 C 65.839844 140.804688 65.550781 156.855469 61.074219 170.644531 C 56.761719 183.949219 47.414062 197.035156 47.414062 211.757812 C 47.414062 226.5 56.761719 239.585938 61.074219 252.871094 C 65.550781 266.660156 65.839844 282.695312 74.179688 294.183594 C 82.613281 305.78125 97.839844 310.957031 109.433594 319.386719 C 120.902344 327.730469 130.503906 340.671875 144.292969 345.148438 C 157.59375 349.464844 172.894531 344.789062 187.632812 344.789062 C 202.375 344.789062 217.675781 349.464844 230.976562 345.148438 C 244.765625 340.671875 254.367188 327.746094 265.835938 319.386719 C 277.429688 310.957031 292.65625 305.761719 301.085938 294.183594 C 309.429688 282.714844 309.71875 266.660156 314.191406 252.871094 C 318.507812 239.570312 327.855469 226.484375 327.855469 211.757812 C 327.855469 197.019531 318.507812 183.929688 314.191406 170.644531 Z M 187.632812 256.34375 C 163.003906 256.34375 143.050781 236.386719 143.050781 211.757812 C 143.050781 187.128906 163.003906 167.175781 187.632812 167.175781 C 212.261719 167.175781 232.21875 187.128906 232.21875 211.757812 C 232.21875 236.386719 212.261719 256.34375 187.632812 256.34375 Z M 187.632812 256.34375 " fill-opacity="1" fill-rule="nonzero"/></g><g clip-path="url(#f7dd55c7b0)"><path fill="#f27f9d" d="M 148.625 111.265625 C 148.625 111.265625 132.804688 106.953125 120.578125 128.523438 C 108.355469 150.097656 101.164062 149.378906 104.761719 163.761719 C 108.355469 178.140625 94.691406 198.996094 109.074219 196.839844 C 123.457031 194.679688 122.019531 187.488281 127.050781 179.582031 C 132.085938 171.671875 135.679688 160.882812 150.78125 155.851562 C 165.882812 150.816406 175.949219 146.503906 178.824219 138.59375 C 181.703125 130.683594 178.105469 109.828125 148.625 111.265625 Z M 148.625 111.265625 " fill-opacity="1" fill-rule="nonzero"/></g><path fill="#f27f9d" d="M 103.320312 233.511719 C 103.320312 233.511719 80.3125 233.511719 84.625 248.613281 C 88.941406 263.714844 91.816406 266.589844 99.726562 283.128906 C 107.636719 299.667969 104.039062 313.328125 122.738281 315.488281 C 141.433594 317.644531 186.734375 324.117188 156.535156 306.859375 C 126.332031 289.601562 133.523438 305.417969 124.175781 285.285156 C 114.828125 265.152344 120.578125 273.78125 114.828125 255.085938 C 109.074219 236.386719 109.074219 236.386719 103.320312 233.511719 Z M 103.320312 233.511719 " fill-opacity="1" fill-rule="nonzero"/><g clip-path="url(#0cff9e7d75)"><path fill="#f7b0bf" d="M 201.476562 162.320312 C 201.476562 162.320312 214.421875 155.851562 222.332031 167.355469 C 230.238281 178.859375 235.273438 213.378906 243.902344 222.726562 C 252.53125 232.074219 225.890625 257.027344 214.5625 257.027344 C 206.367188 257.027344 212.855469 248.847656 215.101562 246.777344 C 217.65625 244.421875 230.996094 230.996094 232.039062 219.488281 C 233.621094 202.25 229.25 185.675781 212.460938 174.835938 C 209.082031 172.660156 193.855469 166.746094 201.476562 162.320312 Z M 201.476562 162.320312 " fill-opacity="1" fill-rule="nonzero"/></g><g clip-path="url(#9c3054c2d0)"><path fill="#ee3d82" d="M 162.464844 165.019531 C 162.464844 165.019531 158.871094 175.085938 143.050781 183.714844 C 127.230469 192.34375 127.949219 204.570312 132.984375 211.039062 C 138.019531 217.511719 140.175781 242.679688 148.804688 248.433594 C 157.433594 254.183594 157.199219 248.9375 149.289062 235.992188 C 141.378906 223.050781 138.503906 196.621094 152.398438 182.996094 C 164.515625 171.113281 171.816406 167.894531 162.464844 165.019531 Z M 162.464844 165.019531 " fill-opacity="1" fill-rule="nonzero"/></g><path fill="#f7b2c3" d="M 103.320312 256.523438 C 103.320312 256.523438 101.164062 260.835938 105.480469 275.21875 C 109.792969 289.601562 111.230469 300.386719 118.421875 304.699219 C 125.613281 309.015625 137.117188 311.890625 138.558594 310.453125 C 139.996094 309.015625 130.648438 310.453125 125.613281 302.542969 C 120.578125 294.632812 109.792969 252.207031 103.320312 256.523438 Z M 103.320312 256.523438 " fill-opacity="1" fill-rule="nonzero"/><g clip-path="url(#d06d600ca6)"><path fill="#f7b1c2" d="M 140.660156 339.019531 C 134.726562 334.164062 130.414062 324.457031 126.097656 320.683594 C 121.785156 316.90625 96.976562 306.121094 94.820312 301.265625 C 92.660156 296.414062 89.964844 293.175781 86.730469 288.324219 C 83.492188 283.46875 80.257812 282.929688 74.863281 270.527344 C 69.472656 258.121094 71.628906 253.808594 69.472656 248.414062 C 67.3125 243.019531 66.234375 236.011719 64.617188 230.617188 C 63 225.222656 67.851562 207.964844 66.234375 202.035156 C 64.617188 196.101562 69.472656 188.550781 69.472656 184.234375 C 69.472656 179.921875 68.390625 169.136719 70.011719 163.203125 C 71.628906 157.269531 75.941406 142.167969 78.640625 136.238281 C 81.335938 130.304688 91.582031 122.214844 107.761719 112.507812 C 123.941406 102.800781 131.492188 92.015625 133.109375 90.933594 C 134.117188 90.269531 134.277344 86.296875 134.277344 83.367188 C 125.398438 89.28125 117.9375 97.964844 109.433594 104.148438 C 97.839844 112.578125 82.613281 117.773438 74.179688 129.351562 C 65.839844 140.820312 65.550781 156.875 61.074219 170.664062 C 56.761719 183.964844 47.414062 197.054688 47.414062 211.777344 C 47.414062 226.519531 56.761719 239.605469 61.074219 252.890625 C 65.550781 266.679688 65.839844 282.714844 74.179688 294.203125 C 82.613281 305.796875 97.839844 310.976562 109.433594 319.40625 C 120.902344 327.746094 130.503906 340.691406 144.292969 345.167969 C 145.386719 345.527344 146.484375 345.8125 147.597656 346.046875 C 145.675781 343.691406 143.160156 341.070312 140.660156 339.019531 Z M 140.660156 339.019531 " fill-opacity="1" fill-rule="nonzero"/></g><g clip-path="url(#1b0ca3bba8)"><path fill="#f27f9d" d="M 257.925781 168.074219 C 257.925781 168.074219 256.488281 153.691406 239.949219 145.785156 C 223.410156 137.875 213.339844 126.367188 218.375 122.054688 C 223.410156 117.738281 242.105469 110.546875 257.207031 125.648438 C 272.304688 140.75 306.101562 175.265625 298.914062 199.714844 C 291.722656 224.164062 285.25 248.613281 280.933594 265.152344 C 276.621094 281.691406 267.273438 293.195312 255.769531 291.039062 C 244.261719 288.882812 229.878906 298.230469 223.410156 299.667969 C 216.9375 301.105469 206.152344 299.667969 229.160156 278.09375 C 252.171875 256.523438 265.835938 249.332031 267.273438 222.726562 C 268.710938 196.121094 257.207031 190.367188 257.925781 168.074219 Z M 257.925781 168.074219 " fill-opacity="1" fill-rule="nonzero"/></g><g clip-path="url(#686fadeb19)"><path fill="#f7afc2" d="M 260.730469 151.914062 C 260.730469 151.914062 269.089844 162.699219 270.4375 179.957031 C 271.785156 197.214844 270.707031 203.417969 273.941406 208.542969 C 277.179688 213.664062 290.929688 198.832031 284.730469 185.890625 C 278.527344 172.945312 263.15625 141.9375 260.730469 151.914062 Z M 260.730469 151.914062 " fill-opacity="1" fill-rule="nonzero"/></g><path fill="#f7afc2" d="M 243.472656 278.921875 C 238.417969 276.675781 255.875 271.101562 259.382812 262.203125 C 262.886719 253.304688 264.234375 266.246094 264.234375 266.246094 C 264.234375 266.246094 267.199219 278.652344 262.347656 280.808594 C 257.492188 282.964844 245.898438 280 243.472656 278.921875 Z M 243.472656 278.921875 " fill-opacity="1" fill-rule="nonzero"/><g clip-path="url(#600eb78c6e)"><path fill="#ee3d82" d="M 314.191406 170.644531 C 313.796875 169.441406 313.4375 168.199219 313.097656 166.960938 C 313.1875 170.679688 313.457031 174.132812 314.011719 176.703125 C 316.171875 186.769531 325.519531 214.816406 308.261719 236.386719 C 291.003906 257.960938 285.96875 262.992188 282.375 280.25 C 278.777344 297.511719 278.058594 287.441406 253.609375 307.578125 C 229.160156 327.710938 234.195312 329.867188 219.8125 338.496094 C 205.433594 347.125 168.722656 340.296875 144.292969 345.148438 C 157.59375 349.464844 172.894531 344.789062 187.632812 344.789062 C 202.375 344.789062 217.675781 349.464844 230.976562 345.148438 C 244.765625 340.671875 254.367188 327.746094 265.835938 319.386719 C 277.429688 310.957031 292.65625 305.761719 301.085938 294.183594 C 309.429688 282.714844 309.71875 266.660156 314.191406 252.871094 C 318.507812 239.570312 327.855469 226.484375 327.855469 211.757812 C 327.855469 197.019531 318.507812 183.929688 314.191406 170.644531 Z M 314.191406 170.644531 " fill-opacity="1" fill-rule="nonzero"/></g><path fill="#ec008c" d="M 296.863281 196.675781 C 296.144531 196.675781 295.460938 196.316406 295.046875 195.667969 C 294.398438 194.664062 294.707031 193.332031 295.710938 192.683594 L 305.097656 186.699219 C 306.101562 186.050781 307.433594 186.359375 308.082031 187.363281 C 308.726562 188.371094 308.421875 189.703125 307.414062 190.347656 L 298.03125 196.335938 C 297.652344 196.570312 297.257812 196.675781 296.863281 196.675781 Z M 296.863281 196.675781 " fill-opacity="1" fill-rule="nonzero"/><path fill="#aadff1" d="M 216.722656 326.074219 C 216.273438 326.074219 215.804688 325.933594 215.410156 325.644531 L 206.5625 318.921875 C 205.613281 318.203125 205.433594 316.851562 206.152344 315.902344 C 206.871094 314.949219 208.21875 314.769531 209.171875 315.488281 L 218.015625 322.210938 C 218.96875 322.929688 219.148438 324.277344 218.429688 325.230469 C 218.015625 325.789062 217.367188 326.074219 216.722656 326.074219 Z M 216.722656 326.074219 " fill-opacity="1" fill-rule="nonzero"/><path fill="#00a651" d="M 119.859375 318.453125 C 119.140625 318.453125 118.457031 318.09375 118.046875 317.464844 L 111.898438 307.828125 C 111.25 306.820312 111.554688 305.492188 112.5625 304.84375 C 113.570312 304.199219 114.898438 304.503906 115.546875 305.507812 L 121.695312 315.144531 C 122.339844 316.152344 122.035156 317.484375 121.03125 318.128906 C 120.652344 318.34375 120.257812 318.453125 119.859375 318.453125 Z M 119.859375 318.453125 " fill-opacity="1" fill-rule="nonzero"/><path fill="#fff200" d="M 241.621094 305.742188 C 241.582031 305.742188 241.53125 305.742188 241.492188 305.742188 C 240.308594 305.671875 239.390625 304.648438 239.460938 303.460938 L 240.234375 290.535156 C 240.308594 289.347656 241.332031 288.449219 242.519531 288.503906 C 243.703125 288.574219 244.621094 289.601562 244.550781 290.785156 L 243.777344 303.710938 C 243.6875 304.863281 242.753906 305.742188 241.621094 305.742188 Z M 241.621094 305.742188 " fill-opacity="1" fill-rule="nonzero"/><path fill="#00aeef" d="M 100.75 218.195312 C 100.15625 218.195312 99.566406 217.941406 99.132812 217.457031 L 90.378906 207.515625 C 89.585938 206.617188 89.675781 205.25 90.574219 204.476562 C 91.476562 203.6875 92.839844 203.777344 93.613281 204.675781 L 102.367188 214.636719 C 103.160156 215.535156 103.070312 216.902344 102.171875 217.671875 C 101.757812 218.015625 101.253906 218.195312 100.75 218.195312 Z M 100.75 218.195312 " fill-opacity="1" fill-rule="nonzero"/><path fill="#fff200" d="M 73.785156 237.609375 C 73.121094 237.609375 72.472656 237.304688 72.058594 236.746094 L 64.617188 226.753906 C 63.898438 225.800781 64.097656 224.449219 65.066406 223.730469 C 66.019531 223.011719 67.367188 223.210938 68.085938 224.179688 L 75.53125 234.175781 C 76.25 235.128906 76.050781 236.476562 75.078125 237.195312 C 74.683594 237.484375 74.234375 237.609375 73.785156 237.609375 Z M 73.785156 237.609375 " fill-opacity="1" fill-rule="nonzero"/><path fill="#aadff1" d="M 84.839844 288.917969 C 84.75 288.917969 84.679688 288.917969 84.589844 288.898438 C 83.402344 288.753906 82.558594 287.695312 82.703125 286.507812 L 84.050781 275.109375 C 84.195312 273.925781 85.273438 273.078125 86.441406 273.222656 C 87.628906 273.367188 88.472656 274.425781 88.328125 275.613281 L 86.980469 287.011719 C 86.855469 288.109375 85.921875 288.917969 84.839844 288.917969 Z M 84.839844 288.917969 " fill-opacity="1" fill-rule="nonzero"/><path fill="#00aeef" d="M 120.707031 280.234375 C 120.328125 280.234375 119.933594 280.125 119.589844 279.929688 C 118.566406 279.316406 118.242188 277.988281 118.871094 276.960938 L 124.964844 266.914062 C 125.578125 265.886719 126.90625 265.566406 127.933594 266.195312 C 128.957031 266.804688 129.28125 268.136719 128.652344 269.160156 L 122.558594 279.210938 C 122.144531 279.855469 121.441406 280.234375 120.707031 280.234375 Z M 120.707031 280.234375 " fill-opacity="1" fill-rule="nonzero"/><path fill="#ffffff" d="M 108.300781 251.09375 L 94.550781 251.058594 C 93.363281 251.058594 92.390625 250.085938 92.390625 248.898438 C 92.390625 247.714844 93.363281 246.742188 94.550781 246.742188 L 108.300781 246.777344 C 109.488281 246.777344 110.457031 247.75 110.457031 248.9375 C 110.457031 250.140625 109.488281 251.09375 108.300781 251.09375 Z M 108.300781 251.09375 " fill-opacity="1" fill-rule="nonzero"/><path fill="#ec008c" d="M 140.121094 245.160156 C 139.796875 245.160156 139.472656 245.089844 139.148438 244.925781 L 128.527344 239.625 C 127.464844 239.085938 127.035156 237.789062 127.554688 236.730469 C 128.09375 235.667969 129.390625 235.238281 130.449219 235.757812 L 141.074219 241.0625 C 142.132812 241.601562 142.566406 242.894531 142.042969 243.957031 C 141.667969 244.730469 140.910156 245.160156 140.121094 245.160156 Z M 140.121094 245.160156 " fill-opacity="1" fill-rule="nonzero"/><path fill="#ec008c" d="M 243.597656 211.992188 C 243.128906 211.992188 242.664062 211.847656 242.265625 211.542969 C 241.332031 210.804688 241.152344 209.457031 241.890625 208.523438 L 250.070312 198.007812 C 250.804688 197.070312 252.152344 196.890625 253.089844 197.628906 C 254.023438 198.367188 254.203125 199.714844 253.464844 200.648438 L 245.285156 211.164062 C 244.875 211.707031 244.226562 211.992188 243.597656 211.992188 Z M 243.597656 211.992188 " fill-opacity="1" fill-rule="nonzero"/><path fill="#39b54a" d="M 266.878906 237.609375 C 266.519531 237.609375 266.140625 237.519531 265.800781 237.324219 L 254.257812 230.707031 C 253.234375 230.113281 252.875 228.800781 253.464844 227.757812 C 254.058594 226.734375 255.371094 226.375 256.414062 226.96875 L 267.957031 233.582031 C 268.980469 234.175781 269.339844 235.488281 268.746094 236.53125 C 268.351562 237.234375 267.613281 237.609375 266.878906 237.609375 Z M 266.878906 237.609375 " fill-opacity="1" fill-rule="nonzero"/><path fill="#00aeef" d="M 298.605469 236.835938 C 298.230469 236.835938 297.851562 236.746094 297.511719 236.53125 C 296.484375 235.921875 296.144531 234.609375 296.738281 233.582031 L 301.679688 225.207031 C 302.292969 224.179688 303.605469 223.839844 304.628906 224.433594 C 305.652344 225.042969 305.996094 226.355469 305.402344 227.382812 L 300.457031 235.757812 C 300.082031 236.460938 299.363281 236.835938 298.605469 236.835938 Z M 298.605469 236.835938 " fill-opacity="1" fill-rule="nonzero"/><path fill="#aadff1" d="M 239.371094 263.496094 C 239.265625 263.496094 239.15625 263.496094 239.050781 263.480469 C 237.863281 263.300781 237.054688 262.203125 237.25 261.015625 L 239.230469 248.125 C 239.410156 246.941406 240.503906 246.148438 241.691406 246.328125 C 242.878906 246.507812 243.6875 247.605469 243.488281 248.792969 L 241.511719 261.679688 C 241.332031 262.742188 240.414062 263.496094 239.371094 263.496094 Z M 239.371094 263.496094 " fill-opacity="1" fill-rule="nonzero"/><path fill="#ffffff" d="M 294.347656 270.597656 C 293.628906 270.597656 292.945312 270.238281 292.53125 269.609375 L 285.574219 258.734375 C 284.925781 257.726562 285.214844 256.394531 286.222656 255.75 C 287.226562 255.101562 288.558594 255.390625 289.203125 256.394531 L 296.164062 267.273438 C 296.808594 268.277344 296.523438 269.609375 295.515625 270.257812 C 295.136719 270.492188 294.742188 270.597656 294.347656 270.597656 Z M 294.347656 270.597656 " fill-opacity="1" fill-rule="nonzero"/><path fill="#ec008c" d="M 275.542969 289.851562 C 275.109375 289.851562 274.660156 289.726562 274.285156 289.4375 L 266.140625 283.59375 C 265.167969 282.894531 264.953125 281.546875 265.65625 280.59375 C 266.355469 279.621094 267.703125 279.40625 268.65625 280.109375 L 276.800781 285.949219 C 277.773438 286.652344 277.988281 288 277.285156 288.953125 C 276.890625 289.527344 276.226562 289.851562 275.542969 289.851562 Z M 275.542969 289.851562 " fill-opacity="1" fill-rule="nonzero"/><path fill="#fff200" d="M 161.945312 279.121094 C 160.902344 279.121094 159.984375 278.363281 159.824219 277.304688 C 159.644531 276.136719 160.433594 275.019531 161.621094 274.839844 L 174.851562 272.71875 C 176.019531 272.523438 177.136719 273.332031 177.316406 274.515625 C 177.496094 275.6875 176.703125 276.800781 175.519531 276.980469 L 162.285156 279.101562 C 162.179688 279.101562 162.054688 279.121094 161.945312 279.121094 Z M 161.945312 279.121094 " fill-opacity="1" fill-rule="nonzero"/><path fill="#ffffff" d="M 149.917969 311.171875 C 149.21875 311.171875 148.535156 310.832031 148.101562 310.203125 L 138.648438 295.765625 C 138 294.777344 138.269531 293.429688 139.277344 292.78125 C 140.265625 292.136719 141.613281 292.40625 142.261719 293.410156 L 151.714844 307.847656 C 152.363281 308.835938 152.09375 310.183594 151.085938 310.832031 C 150.726562 311.046875 150.3125 311.171875 149.917969 311.171875 Z M 149.917969 311.171875 " fill-opacity="1" fill-rule="nonzero"/><path fill="#00aeef" d="M 184.109375 313.367188 C 183.375 313.367188 182.65625 312.988281 182.242188 312.304688 L 175.464844 300.746094 C 174.871094 299.722656 175.210938 298.390625 176.238281 297.796875 C 177.261719 297.1875 178.59375 297.546875 179.183594 298.570312 L 185.960938 310.128906 C 186.554688 311.15625 186.214844 312.484375 185.191406 313.078125 C 184.867188 313.277344 184.488281 313.367188 184.109375 313.367188 Z M 184.109375 313.367188 " fill-opacity="1" fill-rule="nonzero"/><path fill="#ec008c" d="M 156.605469 334.578125 C 155.527344 334.578125 154.59375 333.769531 154.464844 332.671875 C 154.324219 331.488281 155.167969 330.425781 156.355469 330.28125 L 168.992188 328.789062 C 170.179688 328.644531 171.238281 329.492188 171.382812 330.675781 C 171.527344 331.863281 170.683594 332.925781 169.496094 333.070312 L 156.859375 334.5625 C 156.785156 334.5625 156.695312 334.578125 156.605469 334.578125 Z M 156.605469 334.578125 " fill-opacity="1" fill-rule="nonzero"/><path fill="#ffffff" d="M 206.0625 292.261719 C 204.875 292.261719 203.902344 291.289062 203.902344 290.101562 L 203.902344 272.84375 C 203.902344 271.660156 204.875 270.6875 206.0625 270.6875 C 207.246094 270.6875 208.21875 271.660156 208.21875 272.84375 L 208.21875 290.101562 C 208.21875 291.289062 207.246094 292.261719 206.0625 292.261719 Z M 206.0625 292.261719 " fill-opacity="1" fill-rule="nonzero"/><path fill="#39b54a" d="M 135.914062 206.1875 C 135.535156 206.1875 135.140625 206.078125 134.800781 205.863281 L 124.445312 199.535156 C 123.421875 198.90625 123.113281 197.59375 123.726562 196.570312 C 124.355469 195.542969 125.667969 195.238281 126.691406 195.847656 L 137.046875 202.175781 C 138.070312 202.804688 138.378906 204.117188 137.765625 205.144531 C 137.351562 205.828125 136.632812 206.1875 135.914062 206.1875 Z M 135.914062 206.1875 " fill-opacity="1" fill-rule="nonzero"/><path fill="#00a651" d="M 66.234375 197.699219 C 65.804688 197.699219 65.371094 197.574219 64.996094 197.304688 C 64.023438 196.621094 63.789062 195.273438 64.472656 194.304688 L 70.925781 185.097656 C 71.609375 184.128906 72.957031 183.894531 73.929688 184.578125 C 74.898438 185.261719 75.132812 186.609375 74.449219 187.578125 L 67.996094 196.785156 C 67.582031 197.378906 66.898438 197.699219 66.234375 197.699219 Z M 66.234375 197.699219 " fill-opacity="1" fill-rule="nonzero"/><path fill="#f8ad53" d="M 164.390625 352.5 C 171.941406 352.5 190.816406 347.109375 197.828125 350.882812 C 204.839844 354.660156 192.972656 361.128906 174.636719 358.433594 C 156.300781 355.738281 151.984375 352.5 164.390625 352.5 Z M 164.390625 352.5 " fill-opacity="1" fill-rule="nonzero"/><path fill="#f8ad53" d="M 311.640625 284.546875 C 311.640625 284.546875 314.875 271.605469 320.808594 261.359375 C 326.742188 251.109375 327.28125 258.121094 324.042969 263.515625 C 320.808594 268.910156 313.257812 290.480469 310.023438 293.175781 C 306.785156 295.875 311.101562 287.785156 311.640625 284.546875 Z M 311.640625 284.546875 " fill-opacity="1" fill-rule="nonzero"/><path stroke-linecap="butt" transform="matrix(0.675771, -0.14059, 0.14059, 0.675771, 16.929104, 136.837141)" fill="none" stroke-linejoin="miter" d="M 42.618395 114.814224 C 44.780497 114.813161 46.637381 114.667674 48.200128 114.380067 C 49.687389 114.094097 50.924015 113.206843 51.904465 111.717153 C 52.888412 110.349579 53.576207 108.238302 53.956771 105.381017 C 54.244073 102.527451 54.245522 98.602839 53.959963 93.612722 L 40.856456 93.609208 C 37.710951 93.613776 34.954403 93.554753 32.575733 93.429834 C 30.222721 93.431642 28.067273 93.289578 26.098308 93.001337 C 24.034261 92.808924 22.159003 92.459252 20.483614 91.954627 C 18.730695 91.572602 16.870605 90.983308 14.902193 90.192285 C 10.082105 88.438041 6.682297 85.441683 4.716156 81.194434 C 2.653296 76.967526 1.619968 70.931654 1.621712 63.087971 C 1.618422 61.214427 1.574148 58.898824 1.477811 56.138857 C 1.381473 53.37889 1.572503 50.487954 2.050899 47.466048 C 2.459573 44.418076 3.297141 41.309041 4.569144 38.140097 C 5.844644 35.093269 7.857754 32.251919 10.620708 29.612813 C 13.764212 26.561542 17.892426 24.056178 23.002114 22.084488 C 28.113216 20.21714 35.09512 19.27658 43.949908 19.280582 C 48.655932 19.276966 52.829057 19.723185 56.477131 20.609312 C 60.005654 21.597737 63.148978 22.881752 65.907102 24.461356 C 68.666864 26.116447 71.031012 27.978255 73.000701 30.041239 C 74.846453 32.199827 76.422389 34.516159 77.717429 36.987928 C 79.776976 40.925125 81.148411 45.002406 81.818346 49.228547 C 82.419488 53.451936 82.716972 57.328911 82.717491 60.855082 C 82.622374 64.979863 82.228287 69.013543 81.530841 72.949429 L 52.483502 72.952655 L 52.480361 59.992274 C 52.484115 56.056581 52.037043 53.00977 51.151379 50.848606 C 50.166914 48.690008 47.958802 47.606339 44.524739 47.608678 C 43.733399 47.605897 42.896135 47.657147 42.009712 47.750193 C 41.119163 47.946429 40.137659 48.135303 39.057353 48.326744 C 36.608707 48.927162 34.8915 49.957212 33.91012 51.423587 C 32.82648 52.909151 32.191224 54.684533 31.99881 56.748579 C 31.713136 58.816345 31.66504 61.020245 31.857758 63.372511 C 32.047502 65.822426 32.142571 68.171718 32.1462 70.432622 C 32.145634 73.380525 32.986082 75.64789 34.662002 77.233567 C 36.226219 78.911613 38.432878 79.752202 41.288672 79.750946 C 43.542883 79.751705 45.705431 79.692931 47.765235 79.572318 C 49.736428 79.572001 51.702081 79.570531 53.672121 79.575755 C 58.082894 79.574298 62.115828 79.777476 65.765384 80.184135 C 69.387721 80.666058 72.530038 81.649281 75.197876 83.134956 C 77.861809 84.694965 79.925059 87.002851 81.38993 90.047532 C 82.756 93.09478 83.436309 97.271055 83.437552 102.571969 C 83.440084 106.699724 82.707196 110.194704 81.240041 113.051368 C 79.657463 115.907141 77.645836 118.269023 75.198466 120.141402 C 72.627159 122.109386 69.772941 123.631223 66.62912 124.711301 C 63.485299 125.791379 60.340471 126.570666 57.200176 127.050313 C 53.95647 127.55469 50.865295 127.853802 47.908879 127.949732 C 44.86292 128.142642 42.304944 128.24054 40.241643 128.239035 C 35.229287 128.242506 30.906342 127.79402 27.287124 126.908116 C 23.541402 126.019015 20.348028 124.89222 17.708155 123.522191 C 15.043815 122.158632 12.87318 120.533619 11.192795 118.663772 C 9.440643 116.888823 8.07399 115.066906 7.09399 113.192478 C 4.619711 108.77593 3.527343 103.774033 3.818039 98.181249 L 33.765175 100.52132 C 33.763264 102.781072 33.858701 104.795176 34.050335 106.569173 C 34.148707 108.34689 34.494694 109.823515 35.094988 110.994661 C 35.673381 112.271078 36.559628 113.206912 37.759269 113.803315 C 38.83843 114.478701 40.364184 114.813465 42.329837 114.811995 Z M 42.618395 114.814224 " stroke="#ffbcd9" stroke-width="38.703526" stroke-opacity="1" stroke-miterlimit="4"/><path stroke-linecap="butt" transform="matrix(0.688695, -0.0461675, 0.0461675, 0.688695, 82.686436, 123.063465)" fill="none" stroke-linejoin="miter" d="M 20.338741 126.190494 L -1.473193 24.283591 L 29.769909 21.800741 L 36.714657 95.377836 L 45.859521 24.280302 L 72.100003 21.796741 L 72.101454 21.944309 L 74.005583 21.7997 L 83.90545 95.376376 L 88.62134 23.420417 L 119.290417 21.800928 L 99.241529 126.187904 L 69.004459 126.185813 L 59.576245 82.378833 L 50.57619 126.186938 Z M 20.338741 126.190494 " stroke="#ffbcd9" stroke-width="38.703526" stroke-opacity="1" stroke-miterlimit="4"/><path stroke-linecap="butt" transform="matrix(0.688825, 0.0441859, -0.0441859, 0.688825, 168.958705, 118.689587)" fill="none" stroke-linejoin="miter" d="M 2.951695 124.998159 L 2.953589 23.273642 L 71.669464 21.79759 L 71.669216 50.702124 L 29.623644 52.179971 L 29.62536 64.848625 L 62.956809 61.899584 L 62.954607 89.182369 L 29.483422 90.660272 L 29.483262 103.47649 L 71.666558 100.521049 L 71.666115 125.002302 Z M 2.951695 124.998159 " stroke="#ffbcd9" stroke-width="38.703526" stroke-opacity="1" stroke-miterlimit="4"/><path stroke-linecap="butt" transform="matrix(0.680529, 0.115383, -0.115383, 0.680529, 226.691562, 122.72507)" fill="none" stroke-linejoin="miter" d="M 2.951854 125.00158 L 2.953276 23.276646 L 71.668838 21.797321 L 71.667991 50.704222 L 29.625471 52.178561 L 29.627502 64.852188 L 62.958451 61.898774 L 62.957703 89.181231 L 29.480275 90.661335 L 29.482692 103.472657 L 71.670863 100.521397 L 71.66504 124.997844 Z M 2.951854 125.00158 " stroke="#ffbcd9" stroke-width="38.703526" stroke-opacity="1" stroke-miterlimit="4"/><path stroke-linecap="butt" transform="matrix(0.664011, 0.188473, -0.188473, 0.664011, 284.006616, 132.681802)" fill="none" stroke-linejoin="miter" d="M 2.949811 58.946553 L 2.948664 23.273509 L 79.477628 21.800104 L 79.914097 57.473125 L 58.675107 57.90118 L 59.107642 125.001298 L 26.098616 124.999288 L 26.817062 58.513724 Z M 2.949811 58.946553 " stroke="#ffbcd9" stroke-width="38.703526" stroke-opacity="1" stroke-miterlimit="4"/><path stroke-linecap="butt" transform="matrix(0.646534, 0.241714, -0.241714, 0.646534, 342.576779, 150.187022)" fill="none" stroke-linejoin="miter" d="M 4.425937 23.274637 L 31.24331 21.797864 L 28.292695 95.807717 L 7.377524 97.42816 Z M 5.617805 115.136087 C 5.616096 110.218679 6.69711 106.87216 8.853565 105.093212 C 10.920597 103.317487 14.455869 102.4308 19.475284 102.427205 C 22.618209 102.430346 25.062654 102.779206 26.815902 103.477105 C 28.495534 104.268986 29.732516 105.250524 30.523528 106.429002 C 31.317859 107.600197 31.806027 108.922105 32.001952 110.383481 C 32.189901 111.872006 32.289765 113.351169 32.286978 114.814334 C 32.286624 116.494094 32.194914 118.123423 32.001246 119.706285 C 31.715529 121.269184 31.127306 122.637045 30.236576 123.809867 C 29.347731 125.084697 28.01672 126.065656 26.242204 126.765328 C 24.368904 127.556308 21.81509 127.949189 18.57214 127.953234 C 15.719332 127.950384 13.463045 127.555346 11.806599 126.760838 C 10.030165 126.065565 8.696478 125.083931 7.810839 123.813952 C 6.923121 122.635378 6.332995 121.267002 6.045763 119.706842 C 5.761108 118.218221 5.614922 116.695957 5.617805 115.136087 Z M 5.617805 115.136087 " stroke="#ffbcd9" stroke-width="38.703526" stroke-opacity="1" stroke-miterlimit="4"/><g fill="#f57280" fill-opacity="1"><g transform="translate(34.50282, 221.308558)"><g><path d="M 27.375 -12.859375 C 28.84375 -13.171875 30.078125 -13.535156 31.078125 -13.953125 C 32.035156 -14.359375 32.75 -15.128906 33.21875 -16.265625 C 33.6875 -17.328125 33.851562 -18.851562 33.71875 -20.84375 C 33.507812 -22.800781 32.957031 -25.457031 32.0625 -28.8125 L 23.1875 -26.953125 C 21.070312 -26.515625 19.203125 -26.164062 17.578125 -25.90625 C 15.984375 -25.570312 14.503906 -25.363281 13.140625 -25.28125 C 11.722656 -25.125 10.410156 -25.09375 9.203125 -25.1875 C 7.953125 -25.207031 6.609375 -25.347656 5.171875 -25.609375 C 1.671875 -26.117188 -1.039062 -27.660156 -2.96875 -30.234375 C -4.957031 -32.816406 -6.503906 -36.765625 -7.609375 -42.078125 C -7.867188 -43.335938 -8.226562 -44.890625 -8.6875 -46.734375 C -9.132812 -48.578125 -9.410156 -50.566406 -9.515625 -52.703125 C -9.671875 -54.816406 -9.535156 -57.023438 -9.109375 -59.328125 C -8.671875 -61.554688 -7.710938 -63.769531 -6.234375 -65.96875 C -4.535156 -68.457031 -2.097656 -70.726562 1.078125 -72.78125 C 4.273438 -74.757812 8.859375 -76.367188 14.828125 -77.609375 C 18.015625 -78.273438 20.898438 -78.5625 23.484375 -78.46875 C 26.015625 -78.3125 28.316406 -77.894531 30.390625 -77.21875 C 32.492188 -76.46875 34.351562 -75.535156 35.96875 -74.421875 C 37.539062 -73.222656 38.925781 -71.878906 40.125 -70.390625 C 42.070312 -68.035156 43.578125 -65.476562 44.640625 -62.71875 C 45.628906 -59.945312 46.375 -57.363281 46.875 -54.96875 C 47.394531 -52.164062 47.695312 -49.390625 47.78125 -46.640625 L 28.15625 -42.546875 L 26.328125 -51.3125 C 25.773438 -53.96875 25.050781 -55.960938 24.15625 -57.296875 C 23.1875 -58.617188 21.539062 -59.039062 19.21875 -58.5625 C 18.6875 -58.445312 18.125 -58.296875 17.53125 -58.109375 C 16.96875 -57.859375 16.332031 -57.59375 15.625 -57.3125 C 14.039062 -56.5625 13.023438 -55.617188 12.578125 -54.484375 C 12.046875 -53.328125 11.859375 -52.046875 12.015625 -50.640625 C 12.117188 -49.203125 12.40625 -47.695312 12.875 -46.125 C 13.34375 -44.488281 13.734375 -42.90625 14.046875 -41.375 C 14.460938 -39.382812 15.347656 -37.976562 16.703125 -37.15625 C 18.003906 -36.238281 19.617188 -35.984375 21.546875 -36.390625 C 23.066406 -36.703125 24.515625 -37.039062 25.890625 -37.40625 C 27.210938 -37.675781 28.539062 -37.953125 29.875 -38.234375 C 32.863281 -38.859375 35.617188 -39.289062 38.140625 -39.53125 C 40.660156 -39.707031 42.921875 -39.488281 44.921875 -38.875 C 46.941406 -38.164062 48.664062 -36.894531 50.09375 -35.0625 C 51.445312 -33.195312 52.492188 -30.46875 53.234375 -26.875 C 53.816406 -24.082031 53.8125 -21.625 53.21875 -19.5 C 52.550781 -17.351562 51.519531 -15.472656 50.125 -13.859375 C 48.675781 -12.171875 46.960938 -10.742188 44.984375 -9.578125 C 43.015625 -8.390625 41.003906 -7.414062 38.953125 -6.65625 C 36.828125 -5.863281 34.773438 -5.226562 32.796875 -4.75 C 30.765625 -4.1875 29.050781 -3.757812 27.65625 -3.46875 C 24.269531 -2.769531 21.285156 -2.457031 18.703125 -2.53125 C 16.046875 -2.613281 13.734375 -2.929688 11.765625 -3.484375 C 9.765625 -4.035156 8.070312 -4.828125 6.6875 -5.859375 C 5.238281 -6.804688 4.050781 -7.84375 3.125 -8.96875 C 0.84375 -11.613281 -0.59375 -14.84375 -1.1875 -18.65625 L 19.375 -21.28125 C 19.6875 -19.75 20.035156 -18.40625 20.421875 -17.25 C 20.734375 -16.0625 21.175781 -15.113281 21.75 -14.40625 C 22.320312 -13.625 23.046875 -13.117188 23.921875 -12.890625 C 24.765625 -12.566406 25.847656 -12.546875 27.171875 -12.828125 Z M 27.375 -12.859375 "/></g></g></g><g fill="#f57280" fill-opacity="1"><g transform="translate(88.457378, 209.150352)"><g><path d="M 14.0625 -0.125 L -5.65625 -69.28125 L 15.75 -72.453125 L 23.90625 -22.09375 L 26.9375 -71.453125 L 44.890625 -74.40625 L 44.890625 -74.3125 L 46.21875 -74.5 L 56.40625 -24.28125 L 56.328125 -74.046875 L 77.375 -76.578125 L 68.375 -3.765625 L 47.5625 -2.375 L 39.046875 -32.09375 L 34.875 -1.515625 Z M 14.0625 -0.125 "/></g></g></g><g fill="#f57280" fill-opacity="1"><g transform="translate(163.435467, 204.79272)"><g><path d="M 2.03125 0.125 L 6.53125 -69.953125 L 53.90625 -67.921875 L 52.625 -48.015625 L 23.625 -48.84375 L 23.0625 -40.125 L 46.140625 -40.6875 L 44.9375 -21.90625 L 21.828125 -22.375 L 21.265625 -13.53125 L 50.421875 -13.6875 L 49.34375 3.171875 Z M 2.03125 0.125 "/></g></g></g><g fill="#f57280" fill-opacity="1"><g transform="translate(212.268705, 207.791144)"><g><path d="M 2 0.34375 L 13.734375 -68.890625 L 60.65625 -61.96875 L 57.328125 -42.3125 L 28.578125 -46.140625 L 27.109375 -37.515625 L 50.125 -35.6875 L 46.984375 -17.125 L 24.046875 -19.984375 L 22.5625 -11.25 L 51.578125 -8.390625 L 48.75 8.265625 Z M 2 0.34375 "/></g></g></g><g fill="#f57280" fill-opacity="1"><g transform="translate(260.447449, 215.683142)"><g><path d="M 14.40625 -43.3125 L 21.125 -67 L 72.234375 -53.546875 L 65.78125 -29.78125 L 51.59375 -33.46875 L 39.265625 11.140625 L 17.328125 4.921875 L 30.34375 -39.078125 Z M 14.40625 -43.3125 "/></g></g></g><g fill="#f57280" fill-opacity="1"><g transform="translate(312.362558, 231.003834)"><g><path d="M 27.453125 -64.703125 L 45.15625 -59.15625 L 25.359375 -12.03125 L 11.4375 -16.046875 Z M 6 -5.03125 C 7.1875 -8.21875 8.695312 -10.113281 10.53125 -10.71875 C 12.300781 -11.363281 14.804688 -11.082031 18.046875 -9.875 C 20.066406 -9.113281 21.566406 -8.300781 22.546875 -7.4375 C 23.441406 -6.519531 24 -5.585938 24.21875 -4.640625 C 24.4375 -3.679688 24.4375 -2.703125 24.21875 -1.703125 C 23.988281 -0.703125 23.691406 0.269531 23.328125 1.21875 C 22.929688 2.289062 22.476562 3.320312 21.96875 4.3125 C 21.40625 5.25 20.6875 5.988281 19.8125 6.53125 C 18.9375 7.15625 17.847656 7.472656 16.546875 7.484375 C 15.140625 7.546875 13.390625 7.179688 11.296875 6.390625 C 9.453125 5.703125 8.085938 4.898438 7.203125 3.984375 C 6.210938 3.117188 5.585938 2.164062 5.328125 1.125 C 5.054688 0.144531 5.007812 -0.882812 5.1875 -1.96875 C 5.34375 -3 5.613281 -4.019531 6 -5.03125 Z M 6 -5.03125 "/></g></g></g><path stroke-linecap="butt" transform="matrix(0.848214, -0.18276, 0.18276, 0.848214, 66.325035, 68.855115)" fill="none" stroke-linejoin="miter" d="M 0.907577 75.998589 L 0.904024 13.582701 L 20.892718 12.676401 L 18.17711 62.790619 L 40.354941 60.979028 L 40.35562 76.00154 Z M 0.907577 75.998589 " stroke="#ffbcd9" stroke-width="23.749504" stroke-opacity="1" stroke-miterlimit="4"/><path stroke-linecap="butt" transform="matrix(0.858079, -0.128724, 0.128724, 0.858079, 103.460549, 60.748441)" fill="none" stroke-linejoin="miter" d="M 1.811461 37.63446 C 1.812618 34.379724 2.023692 31.242973 2.453588 28.225542 C 2.804457 25.219018 3.829376 22.513912 5.521445 20.095533 C 7.213067 17.74082 9.746583 15.812856 13.11754 14.310973 C 16.491169 12.791282 21.197314 11.917614 27.232859 11.680397 L 29.221851 11.682873 C 34.347821 11.682498 38.418624 12.434297 41.434927 13.933818 C 44.39402 15.511251 46.654343 17.498272 48.215231 19.899331 C 49.733599 22.371402 50.696558 25.147101 51.10923 28.222644 C 51.53971 31.300858 51.751812 34.378179 51.749989 37.455275 L 52.017805 52.299599 C 52.016426 55.495122 51.837185 58.632096 51.484533 61.71119 C 51.059534 64.847716 50.029049 67.620272 48.391742 70.03776 C 46.714588 72.508452 44.180626 74.500082 40.796312 75.999961 C 37.366141 77.502066 32.628388 78.252632 26.591956 78.252995 C 20.983374 78.253808 16.6076 77.501783 13.473537 75.998253 C 10.279594 74.499397 7.869678 72.508145 6.251359 70.034737 C 4.614786 67.622323 3.556328 64.845955 3.070865 61.709417 C 2.585624 58.632092 2.255318 55.523382 2.074826 52.38707 Z M 26.882162 34.653428 C 24.702838 34.827254 23.095833 35.19164 22.067604 35.733896 C 20.989288 36.336923 20.2707 37.303473 19.899151 38.627089 C 19.474843 40.029284 19.299181 41.837518 19.370831 44.060694 C 19.431126 46.359557 19.456909 49.222282 19.460869 52.655326 C 19.457501 54.77165 19.490867 56.643107 19.548277 58.263241 C 19.608358 59.956613 19.850535 61.376849 20.27414 62.5284 C 20.689731 63.733377 21.323258 64.638728 22.174721 65.244453 C 23.012828 65.848175 24.242727 66.146485 25.863083 66.148288 L 26.682499 66.148299 C 28.550841 66.014315 29.971301 65.649259 30.945214 65.044226 C 31.903322 64.514212 32.593637 63.675439 33.020613 62.528574 C 33.389265 61.436692 33.602764 60.043843 33.66111 58.350028 C 33.721459 56.733902 33.778695 54.835066 33.83727 52.654187 C 33.956632 49.339794 34.045046 46.53517 34.10251 44.240316 C 34.16309 41.955034 34.04313 40.084244 33.751535 38.629281 C 33.440128 37.185003 32.924139 36.133401 32.204237 35.470022 C 31.420892 34.865411 30.245754 34.566212 28.671255 34.562183 L 27.765245 34.562839 C 27.469178 34.563948 27.173555 34.592437 26.882162 34.653428 Z M 26.882162 34.653428 " stroke="#ffbcd9" stroke-width="23.749504" stroke-opacity="1" stroke-miterlimit="4"/><path stroke-linecap="butt" transform="matrix(0.865056, -0.0674266, 0.0674266, 0.865056, 152.218617, 53.543526)" fill="none" stroke-linejoin="miter" d="M -1.812518 13.580992 L 20.718507 12.677477 L 27.873912 61.886292 L 32.379367 13.757973 L 54.554243 12.673168 L 38.983928 76.001033 L 17.096738 76.001939 Z M -1.812518 13.580992 " stroke="#ffbcd9" stroke-width="23.749504" stroke-opacity="1" stroke-miterlimit="4"/><g fill="#f57280" fill-opacity="1"><g transform="translate(80.214813, 133.319409)"><g><path d="M 0.765625 -0.171875 L -10.640625 -53.125 L 6.15625 -57.546875 L 13 -14.546875 L 31.484375 -20.109375 L 34.234375 -7.375 Z M 0.765625 -0.171875 "/></g></g></g><g fill="#f57280" fill-opacity="1"><g transform="translate(113.243556, 125.962427)"><g><path d="M -3.390625 -33.140625 C -3.804688 -35.929688 -4.03125 -38.65625 -4.0625 -41.3125 C -4.132812 -43.945312 -3.601562 -46.40625 -2.46875 -48.6875 C -1.320312 -50.914062 0.601562 -52.894531 3.3125 -54.625 C 6.019531 -56.363281 9.941406 -57.71875 15.078125 -58.6875 L 16.796875 -58.953125 C 21.191406 -59.609375 24.785156 -59.484375 27.578125 -58.578125 C 30.304688 -57.617188 32.5 -56.203125 34.15625 -54.328125 C 35.757812 -52.410156 36.945312 -50.160156 37.71875 -47.578125 C 38.476562 -44.972656 39.054688 -42.351562 39.453125 -39.71875 L 41.59375 -27.03125 C 42 -24.289062 42.242188 -21.578125 42.328125 -18.890625 C 42.367188 -16.148438 41.847656 -13.640625 40.765625 -11.359375 C 39.628906 -9.023438 37.710938 -6.988281 35.015625 -5.25 C 32.253906 -3.507812 28.289062 -2.25 23.125 -1.46875 C 18.3125 -0.75 14.460938 -0.835938 11.578125 -1.734375 C 8.628906 -2.628906 6.300781 -4.023438 4.59375 -5.921875 C 2.882812 -7.785156 1.617188 -10.03125 0.796875 -12.65625 C -0.00390625 -15.226562 -0.679688 -17.847656 -1.234375 -20.515625 Z M 17.71875 -38.9375 C 15.882812 -38.5 14.5625 -37.984375 13.75 -37.390625 C 12.894531 -36.722656 12.398438 -35.800781 12.265625 -34.625 C 12.078125 -33.375 12.15625 -31.789062 12.5 -29.875 C 12.84375 -27.925781 13.238281 -25.476562 13.6875 -22.53125 C 13.957031 -20.71875 14.222656 -19.117188 14.484375 -17.734375 C 14.753906 -16.296875 15.144531 -15.113281 15.65625 -14.1875 C 16.175781 -13.195312 16.832031 -12.5 17.625 -12.09375 C 18.4375 -11.6875 19.539062 -11.585938 20.9375 -11.796875 L 21.640625 -11.90625 C 23.222656 -12.25 24.390625 -12.738281 25.140625 -13.375 C 25.898438 -13.96875 26.390625 -14.785156 26.609375 -15.828125 C 26.773438 -16.804688 26.773438 -18.019531 26.609375 -19.46875 C 26.453125 -20.875 26.257812 -22.515625 26.03125 -24.390625 C 25.707031 -27.253906 25.421875 -29.664062 25.171875 -31.625 C 24.929688 -33.601562 24.585938 -35.195312 24.140625 -36.40625 C 23.703125 -37.601562 23.128906 -38.441406 22.421875 -38.921875 C 21.671875 -39.347656 20.625 -39.457031 19.28125 -39.25 L 18.5 -39.140625 C 18.238281 -39.097656 17.976562 -39.03125 17.71875 -38.9375 Z M 17.71875 -38.9375 "/></g></g></g><g fill="#f57280" fill-opacity="1"><g transform="translate(157.343038, 119.287816)"><g><path d="M -5.765625 -53.875 L 13.65625 -56.171875 L 23.140625 -14.09375 L 23.828125 -56.046875 L 42.921875 -58.453125 L 33.71875 -2.625 L 14.796875 -1.15625 Z M -5.765625 -53.875 "/></g></g></g><g fill="#f57280" fill-opacity="1"><g transform="translate(201.152074, 116.078434)"><g/></g></g><path stroke-linecap="butt" transform="matrix(0.737992, 0.207848, -0.207848, 0.737992, 232.75329, 16.570198)" fill="none" stroke-linejoin="miter" d="M 42.621337 114.813189 C 44.781039 114.813634 46.641051 114.670881 48.199989 114.380027 C 49.686128 114.093798 50.923294 113.205467 51.906583 111.716417 C 52.892216 110.348449 53.57411 108.240304 53.95931 105.379414 C 54.245809 102.52515 54.247301 98.602557 53.958884 93.613015 L 40.857211 93.608406 C 37.713527 93.60985 34.950081 93.551842 32.576679 93.431619 C 30.226618 93.431856 28.063952 93.289333 26.09849 93.001287 C 24.033285 92.810143 22.16114 92.458763 20.479913 91.958338 C 18.730371 91.572428 16.871015 90.984551 14.900464 90.189802 C 10.078167 88.440918 6.681271 85.438397 4.717441 81.190667 C 2.650626 76.971941 1.621543 70.931247 1.619624 63.087442 C 1.621092 61.213278 1.572434 58.898026 1.478556 56.140305 C 1.378392 53.379062 1.569851 50.488048 2.051551 47.462359 C 2.458448 44.415393 3.298767 41.309876 4.571126 38.140902 C 5.840923 35.09439 7.860888 32.249461 10.616308 29.610259 C 13.765174 26.563834 17.890398 24.052268 23.001029 22.088892 C 28.110619 20.215792 35.098544 19.27986 43.953614 19.278955 C 48.653736 19.27848 52.828003 19.72252 56.476414 20.611075 C 60.004085 21.597152 63.14992 22.881321 65.909014 24.464963 C 68.666447 26.117882 71.031894 27.976476 73.000452 30.042125 C 74.846889 32.200393 76.421179 34.519997 77.714276 36.987607 C 79.78145 40.925699 81.146859 45.003211 81.81817 49.228573 C 82.420203 53.452273 82.71772 57.327705 82.720528 60.852106 C 82.623777 64.981493 82.225054 69.015963 81.532785 72.947849 L 52.485244 72.951003 L 52.481627 59.989266 C 52.480357 56.056864 52.039067 53.005301 51.15071 50.847147 C 50.167173 48.689333 47.956961 47.607446 44.527739 47.609913 C 43.734117 47.61112 42.894837 47.656944 42.006376 47.753671 C 41.118256 47.945578 40.134957 48.137826 39.056478 48.330414 C 36.610381 48.929352 34.893997 49.957943 33.910086 51.425995 C 32.830236 52.910482 32.192977 54.68847 32.001833 56.753675 C 31.714127 58.814317 31.664502 61.024922 31.855098 63.374301 C 32.047417 65.823764 32.142833 68.173484 32.14273 70.428366 C 32.143492 73.38169 32.983149 75.648836 34.663082 77.234707 C 36.225799 78.911816 38.431325 79.75154 41.289471 79.751119 C 43.544352 79.751223 45.703574 79.693579 47.765754 79.573284 C 49.735097 79.57441 51.70306 79.570633 53.672403 79.571759 C 58.086987 79.572308 62.119394 79.775768 65.764719 80.183522 C 69.388767 80.666078 72.534339 81.648615 75.197912 83.137418 C 77.859825 84.695499 79.921963 86.999447 81.389229 90.04788 C 82.755031 93.093131 83.439813 97.272354 83.440813 102.57574 C 83.43786 106.699882 82.706655 110.192822 81.245817 113.049656 C 79.657612 115.905311 77.64437 118.266676 75.197661 120.141419 C 72.628832 122.108779 69.771238 123.633452 66.629785 124.714057 C 63.48695 125.789758 60.340329 126.570112 57.199732 127.052357 C 53.959672 127.557322 50.86315 127.857775 47.910166 127.953717 C 44.862344 128.145179 42.306172 128.240517 40.241649 128.239731 C 35.228706 128.238327 30.907456 127.798631 27.284947 126.908074 C 23.541356 126.01986 20.349444 124.891582 17.709211 123.523239 C 15.04798 122.155517 12.876196 120.533499 11.19524 118.66209 C 9.441823 116.890484 8.074929 115.062949 7.092416 113.190674 C 4.621822 108.77867 3.529354 103.7721 3.81287 98.182153 L 33.764162 100.523369 C 33.764058 102.77825 33.860733 104.794152 34.054188 106.571073 C 34.146177 108.344813 34.498923 109.822804 35.094949 110.999381 C 35.670318 112.271759 36.558386 113.207293 37.759152 113.805984 C 38.837177 114.476296 40.361551 114.814467 42.330895 114.815593 Z M 42.621337 114.813189 " stroke="#f57280" stroke-width="38.703526" stroke-opacity="1" stroke-miterlimit="4"/><path stroke-linecap="butt" transform="matrix(0.707739, 0.294853, -0.294853, 0.707739, 303.219652, 36.862454)" fill="none" stroke-linejoin="miter" d="M 2.950692 62.476063 C 2.95368 57.170735 3.297231 52.060204 3.995455 47.138591 C 4.572969 42.245191 6.238803 37.83115 8.997661 33.89451 C 11.758865 30.05624 15.885855 26.912895 21.383333 24.462515 C 26.877677 21.991364 34.545131 20.563194 44.380993 20.179965 L 47.621722 20.182074 C 55.971823 20.180499 62.608815 21.405925 67.52878 23.848946 C 72.353112 26.420118 76.037338 29.65945 78.576755 33.5689 C 81.050716 37.599449 82.622471 42.127293 83.292804 47.141069 C 83.99057 52.154454 84.336398 57.170957 84.339694 62.186662 L 84.769292 86.375559 C 84.77062 91.58526 84.481936 96.69501 83.905201 101.709512 C 83.209712 106.823162 81.534075 111.346154 78.868884 115.282407 C 76.133145 119.314283 72.006543 122.551295 66.486333 125.000106 C 60.893229 127.44617 53.180322 128.672503 43.338992 128.671657 C 34.198794 128.671236 27.070735 127.446179 21.956773 125.001189 C 16.751888 122.549925 12.82546 119.31215 10.184935 115.279242 C 7.524026 111.343136 5.79433 106.820379 5.00055 101.709012 C 4.213819 96.694055 3.672428 91.63208 3.385784 86.519169 Z M 43.805115 57.614695 C 40.254369 57.901804 37.63989 58.488769 35.958933 59.382254 C 34.210171 60.364699 33.032792 61.937001 32.431498 64.097198 C 31.735355 66.374181 31.447163 69.325666 31.566921 72.951651 C 31.662768 76.692466 31.715069 81.362114 31.715203 86.953146 C 31.71426 90.408644 31.759582 93.458514 31.858614 96.094134 C 31.953722 98.852815 32.351015 101.170999 33.041872 103.041241 C 33.719007 105.011027 34.747711 106.486627 36.139349 107.468826 C 37.510216 108.454159 39.513653 108.944142 42.15162 108.94348 L 43.482949 108.946285 C 46.533219 108.729697 48.84475 108.130961 50.431651 107.144196 C 51.987194 106.280884 53.118319 104.91551 53.811699 103.042589 C 54.413759 101.268427 54.759923 98.999266 54.856853 96.23785 C 54.954561 93.597536 55.051506 90.504954 55.143769 86.950698 C 55.340367 81.553672 55.48245 76.97966 55.578641 73.236111 C 55.675223 69.519995 55.481366 66.471294 55.003734 64.092751 C 54.499058 61.742033 53.658092 60.028158 52.483578 58.944464 C 51.208338 57.963447 49.291905 57.470332 46.720171 57.470997 L 45.24697 57.472105 C 44.767268 57.473259 44.289132 57.517915 43.805115 57.614695 Z M 43.805115 57.614695 " stroke="#f57280" stroke-width="38.703526" stroke-opacity="1" stroke-miterlimit="4"/><g fill="#ffbcd9" fill-opacity="1"><g transform="translate(206.772244, 108.819163)"><g><path d="M 33.5625 1.359375 C 35.15625 1.804688 36.5625 2.082031 37.78125 2.1875 C 38.925781 2.269531 40.019531 1.867188 41.0625 0.984375 C 42.070312 0.179688 43.019531 -1.226562 43.90625 -3.25 C 44.71875 -5.289062 45.535156 -8.191406 46.359375 -11.953125 L 36.671875 -14.6875 C 34.359375 -15.332031 32.335938 -15.941406 30.609375 -16.515625 C 28.867188 -17.003906 27.304688 -17.5625 25.921875 -18.1875 C 24.429688 -18.757812 23.117188 -19.398438 21.984375 -20.109375 C 20.753906 -20.773438 19.503906 -21.597656 18.234375 -22.578125 C 15.035156 -24.890625 13.15625 -27.804688 12.59375 -31.328125 C 11.945312 -34.878906 12.441406 -39.554688 14.078125 -45.359375 C 14.460938 -46.734375 14.898438 -48.445312 15.390625 -50.5 C 15.898438 -52.550781 16.648438 -54.65625 17.640625 -56.8125 C 18.554688 -58.976562 19.816406 -61.082031 21.421875 -63.125 C 22.992188 -65.125 25.070312 -66.816406 27.65625 -68.203125 C 30.613281 -69.785156 34.1875 -70.773438 38.375 -71.171875 C 42.53125 -71.484375 47.867188 -70.722656 54.390625 -68.890625 C 57.867188 -67.898438 60.863281 -66.703125 63.375 -65.296875 C 65.769531 -63.835938 67.828125 -62.238281 69.546875 -60.5 C 71.222656 -58.695312 72.570312 -56.828125 73.59375 -54.890625 C 74.53125 -52.910156 75.210938 -50.878906 75.640625 -48.796875 C 76.335938 -45.472656 76.503906 -42.1875 76.140625 -38.9375 C 75.703125 -35.6875 75.113281 -32.753906 74.375 -30.140625 C 73.445312 -27.117188 72.316406 -24.222656 70.984375 -21.453125 L 49.5625 -27.5 L 52.265625 -37.078125 C 53.078125 -39.984375 53.378906 -42.320312 53.171875 -44.09375 C 52.898438 -45.894531 51.492188 -47.15625 48.953125 -47.875 C 48.367188 -48.03125 47.742188 -48.164062 47.078125 -48.28125 C 46.378906 -48.332031 45.609375 -48.390625 44.765625 -48.453125 C 42.828125 -48.535156 41.347656 -48.132812 40.328125 -47.25 C 39.210938 -46.394531 38.367188 -45.222656 37.796875 -43.734375 C 37.148438 -42.265625 36.65625 -40.640625 36.3125 -38.859375 C 35.945312 -37.003906 35.53125 -35.242188 35.0625 -33.578125 C 34.445312 -31.398438 34.585938 -29.554688 35.484375 -28.046875 C 36.304688 -26.492188 37.769531 -25.421875 39.875 -24.828125 C 41.539062 -24.359375 43.144531 -23.945312 44.6875 -23.59375 C 46.144531 -23.175781 47.597656 -22.765625 49.046875 -22.359375 C 52.304688 -21.441406 55.238281 -20.457031 57.84375 -19.40625 C 60.425781 -18.289062 62.546875 -16.914062 64.203125 -15.28125 C 65.828125 -13.5625 66.867188 -11.425781 67.328125 -8.875 C 67.710938 -6.332031 67.351562 -3.109375 66.25 0.796875 C 65.394531 3.847656 64.125 6.273438 62.4375 8.078125 C 60.6875 9.847656 58.710938 11.164062 56.515625 12.03125 C 54.210938 12.957031 51.789062 13.492188 49.25 13.640625 C 46.695312 13.785156 44.210938 13.707031 41.796875 13.40625 C 39.296875 13.09375 36.945312 12.671875 34.75 12.140625 C 32.457031 11.648438 30.550781 11.1875 29.03125 10.75 C 25.332031 9.707031 22.234375 8.484375 19.734375 7.078125 C 17.160156 5.648438 15.035156 4.15625 13.359375 2.59375 C 11.691406 1.019531 10.429688 -0.625 9.578125 -2.34375 C 8.648438 -4.007812 8.015625 -5.640625 7.671875 -7.234375 C 6.773438 -11.003906 7.019531 -14.929688 8.40625 -19.015625 L 30.015625 -11.046875 C 29.546875 -9.378906 29.191406 -7.867188 28.953125 -6.515625 C 28.671875 -5.191406 28.617188 -4.03125 28.796875 -3.03125 C 28.972656 -1.976562 29.4375 -1.109375 30.1875 -0.421875 C 30.84375 0.316406 31.890625 0.890625 33.328125 1.296875 Z M 33.5625 1.359375 "/></g></g></g><g fill="#ffbcd9" fill-opacity="1"><g transform="translate(266.36303, 125.329826)"><g><path d="M 20.53125 -43.375 C 22.09375 -47.125 23.835938 -50.640625 25.765625 -53.921875 C 27.640625 -57.222656 30.125 -59.859375 33.21875 -61.828125 C 36.300781 -63.722656 40.148438 -64.734375 44.765625 -64.859375 C 49.390625 -64.984375 55.238281 -63.726562 62.3125 -61.09375 L 64.609375 -60.140625 C 70.523438 -57.679688 74.863281 -54.859375 77.625 -51.671875 C 80.269531 -48.441406 81.914062 -45.0625 82.5625 -41.53125 C 83.113281 -37.957031 82.898438 -34.289062 81.921875 -30.53125 C 80.921875 -26.789062 79.679688 -23.144531 78.203125 -19.59375 L 71.390625 -2.34375 C 69.847656 1.34375 68.132812 4.875 66.25 8.25 C 64.25 11.664062 61.734375 14.375 58.703125 16.375 C 55.566406 18.414062 51.6875 19.492188 47.0625 19.609375 C 42.375 19.691406 36.546875 18.285156 29.578125 15.390625 C 23.109375 12.691406 18.429688 9.722656 15.546875 6.484375 C 12.597656 3.203125 10.773438 -0.253906 10.078125 -3.890625 C 9.359375 -7.453125 9.472656 -11.15625 10.421875 -15 C 11.335938 -18.789062 12.441406 -22.535156 13.734375 -26.234375 Z M 50.859375 -34.78125 C 48.265625 -35.613281 46.242188 -35.960938 44.796875 -35.828125 C 43.253906 -35.648438 41.960938 -34.882812 40.921875 -33.53125 C 39.753906 -32.132812 38.671875 -30.140625 37.671875 -27.546875 C 36.640625 -24.867188 35.300781 -21.546875 33.65625 -17.578125 C 32.632812 -15.140625 31.769531 -12.96875 31.0625 -11.0625 C 30.3125 -9.082031 29.910156 -7.332031 29.859375 -5.8125 C 29.753906 -4.207031 30.050781 -2.859375 30.75 -1.765625 C 31.425781 -0.660156 32.703125 0.28125 34.578125 1.0625 L 35.515625 1.453125 C 37.742188 2.210938 39.550781 2.472656 40.9375 2.234375 C 42.320312 2.066406 43.535156 1.429688 44.578125 0.328125 C 45.515625 -0.753906 46.421875 -2.253906 47.296875 -4.171875 C 48.148438 -6.015625 49.132812 -8.175781 50.25 -10.65625 C 51.976562 -14.4375 53.425781 -17.628906 54.59375 -20.234375 C 55.769531 -22.847656 56.53125 -25.0625 56.875 -26.875 C 57.21875 -28.695312 57.132812 -30.160156 56.625 -31.265625 C 56.007812 -32.347656 54.796875 -33.265625 52.984375 -34.015625 L 51.9375 -34.453125 C 51.59375 -34.597656 51.234375 -34.707031 50.859375 -34.78125 Z M 50.859375 -34.78125 "/></g></g></g></svg>